Coordinates
version=1
nRows=26
nColumns=24
inDegrees=yes

Units are S.I. units (second, meters, Newtons, ...)
Angles are in degrees.

endheader
time	pelvis_tilt	pelvis_list	pelvis_rotation	pelvis_tx	pelvis_ty	pelvis_tz	hip_flexion_r	hip_adduction_r	hip_rotation_r	knee_angle_r	ankle_angle_r	subtalar_angle_r	mtp_angle_r	hip_flexion_l	hip_adduction_l	hip_rotation_l	knee_angle_l	ankle_angle_l	subtalar_angle_l	mtp_angle_l	lumbar_extension	lumbar_bending	lumbar_rotation
      6.20000000	     -1.60737407	      8.48881899	     -3.23731169	      1.87057430	      1.01902199	     -0.20635006	      7.89471925	    -12.75174181	     -5.04771369	    -62.37557783	    -14.32294928	      0.01442208	      0.00000000	     16.59227731	     11.32883504	     -4.18654677	    -15.73767786	      7.73271364	     -8.06450157	      0.00000000	     -9.99820060	    -12.18773430	      0.34611433
      6.20500000	     -1.54017794	      8.56260959	     -3.27905216	      1.87675977	      1.01977508	     -0.20683378	      8.63460463	    -12.79421899	     -4.82781248	    -63.23676642	    -13.37054983	     -0.00957464	      0.00000000	     16.03567588	     11.47858011	     -4.11137325	    -15.52438463	      8.02881521	     -8.01938583	      0.00000000	    -10.04251791	    -12.22261830	      0.19148658
      6.21000000	     -1.46737452	      8.61145362	     -3.30470195	      1.88294248	      1.02057026	     -0.20732875	      9.34750909	    -12.80376928	     -4.63800125	    -64.01786886	    -12.25170780	      0.03730397	      0.00000000	     15.45057058	     11.61388615	     -3.98046251	    -15.27380964	      8.27897797	     -8.03466986	      0.00000000	    -10.09031983	    -12.22465403	      0.02679943
      6.21500000	     -1.38770001	      8.64814738	     -3.31984642	      1.88913731	      1.02141104	     -0.20783170	     10.03257989	    -12.79605153	     -4.47561078	    -64.71870078	    -11.00093244	      0.12764691	      0.00000000	     14.82886214	     11.74757782	     -3.77575269	    -14.97077953	      8.45151766	     -8.13227231	      0.00000000	    -10.13903357	    -12.21068963	     -0.14001949
      6.22000000	     -1.30709074	      8.63619528	     -3.28883818	      1.89529814	      1.02227304	     -0.20840032	     10.68555114	    -12.74101827	     -4.38243993	    -65.33820408	     -9.66067915	      0.25667766	      0.00000000	     14.19710523	     11.84305246	     -3.53006841	    -14.66702473	      8.65490715	     -8.21658255	      0.00000000	    -10.20070675	    -12.12722515	     -0.35055623
      6.22500000	     -1.21902452	      8.61995087	     -3.24683523	      1.90147206	      1.02316489	     -0.20898543	     11.31165184	    -12.68404359	     -4.32046241	    -65.88446829	     -8.24240558	      0.40770840	      0.00000000	     13.53402248	     11.94237310	     -3.22466193	    -14.32041993	      8.77569706	     -8.39031572	      0.00000000	    -10.26322474	    -12.03810217	     -0.56338282
      6.23000000	     -1.12274526	      8.59237640	     -3.17806833	      1.90764252	      1.02409744	     -0.20960524	     11.90348830	    -12.62075098	     -4.31111997	    -66.35052657	     -6.78297068	      0.54246890	      0.00000000	     12.83794908	     12.03870738	     -2.84356495	    -13.93345682	      8.82331153	     -8.62438282	      0.00000000	    -10.33766699	    -11.93357986	     -0.77787651
      6.23500000	     -1.02488427	      8.53870579	     -3.08907087	      1.91381416	      1.02503775	     -0.21025976	     12.47202780	    -12.53291633	     -4.33899966	    -66.74238171	     -5.32076144	      0.66738533	      0.00000000	     12.12450430	     12.11115104	     -2.42581296	    -13.52661970	      8.86849093	     -8.87479321	      0.00000000	    -10.41225147	    -11.79091872	     -1.01683135
      6.24000000	     -0.92867728	      8.46351800	     -2.98065709	      1.91997960	      1.02598625	     -0.21093422	     13.02185889	    -12.42410759	     -4.40278794	    -67.06131778	     -3.86990359	      0.77039467	      0.00000000	     11.40128209	     12.16066900	     -1.98653315	    -13.10503353	      8.89485031	     -9.13740261	      0.00000000	    -10.48549903	    -11.61926115	     -1.26469163
      6.24500000	     -0.84981619	      8.35092505	     -2.87226602	      1.92610291	      1.02689769	     -0.21159190	     13.58252713	    -12.26680637	     -4.47036851	    -67.31737171	     -2.46660951	      0.85804104	      0.00000000	     10.69577899	     12.16158520	     -1.56658373	    -12.68506138	      8.96930845	     -9.36337706	      0.00000000	    -10.54209968	    -11.40253088	     -1.51852360
      6.25000000	     -0.74036396	      8.26482493	     -2.71459734	      1.93227424	      1.02787887	     -0.21233220	     14.07390656	    -12.16194147	     -4.62523345	    -67.48826116	     -1.09834046	      0.87725037	      0.00000000	      9.92213287	     12.20202407	     -1.02718126	    -12.20431220	      8.88087930	     -9.70446076	      0.00000000	    -10.63168581	    -11.21486109	     -1.78060352
      6.25500000	     -0.64484181	      8.13926263	     -2.56657446	      1.93839868	      1.02881929	     -0.21301802	     14.57550386	    -12.00115313	     -4.77465445	    -67.59752853	      0.18333543	      0.86053253	      0.00000000	      9.16843005	     12.18512795	     -0.52774855	    -11.73487506	      8.85704676	     -9.98354844	      0.00000000	    -10.70966703	    -10.98500005	     -2.04027588
      6.26000000	     -0.54609029	      8.00749683	     -2.41231188	      1.94449825	      1.02973408	     -0.21372162	     15.06436664	    -11.83507349	     -4.94190780	    -67.64481551	      1.37420266	      0.79503280	      0.00000000	      8.40142785	     12.15718610	      0.01195075	    -11.24763675	      8.82775172	    -10.28684055	      0.00000000	    -10.79609643	    -10.74461189	     -2.30354147
      6.26500000	     -0.48192603	      7.84323354	     -2.24388437	      1.95058918	      1.03061731	     -0.21440152	     15.56693051	    -11.62872736	     -5.12994636	    -67.61737080	      2.50948599	      0.73888596	      0.00000000	      7.67987900	     12.08098604	      0.44878565	    -10.77307332	      8.79420721	    -10.51740676	      0.00000000	    -10.83866895	    -10.46604152	     -2.55433785
      6.27000000	     -0.45886955	      7.66160309	     -2.13192869	      1.95658531	      1.03138721	     -0.21491352	     16.13504974	    -11.36623761	     -5.24756921	    -67.54795000	      3.54625917	      0.64331163	      0.00000000	      7.02020607	     11.95742086	      0.82910536	    -10.32152230	      8.86507843	    -10.61867160	      0.00000000	    -10.83855787	    -10.19152084	     -2.71694991
      6.27500000	     -0.34013192	      7.51087302	     -1.89842407	      1.96269390	      1.03227746	     -0.21574910	     16.53392363	    -11.21510932	     -5.55292523	    -67.39007367	      4.51637581	      0.52784386	      0.00000000	      6.19039538	     11.90652094	      1.49789022	     -9.76220829	      8.68766999	    -11.09265169	      0.00000000	    -10.95376064	     -9.91030000	     -3.05593279
      6.28000000	     -0.28540948	      7.31627637	     -1.72338956	      1.96871659	      1.03306623	     -0.21638700	     17.01147290	    -10.97156997	     -5.77272924	    -67.17777166	      5.43467211	      0.46399738	      0.00000000	      5.46782613	     11.77369775	      1.95391293	     -9.25574490	      8.61546837	    -11.35109487	      0.00000000	    -10.99452337	     -9.60233736	     -3.29585630
      6.28500000	     -0.24625939	      7.11400517	     -1.55418386	      1.97471367	      1.03378770	     -0.21699600	     17.49917726	    -10.71500228	     -5.99076675	    -66.91157595	      6.29633935	      0.41687967	      0.00000000	      4.76343852	     11.62395667	      2.40868234	     -8.74612743	      8.55337950	    -11.61806852	      0.00000000	    -11.01599300	     -9.28655367	     -3.52632404
      6.29000000	     -0.19894359	      6.91548028	     -1.37872846	      1.98068319	      1.03446854	     -0.21759483	     17.96715158	    -10.46428102	     -6.22193004	    -66.59157100	      7.12097544	      0.39025746	      0.00000000	      4.04149985	     11.47163686	      2.92014122	     -8.21699917	      8.45961665	    -11.93291735	      0.00000000	    -11.05512659	     -8.97913220	     -3.75193419
      6.29500000	     -0.14878370	      6.71522028	     -1.21206038	      1.98663189	      1.03508962	     -0.21817337	     18.42552374	    -10.20976565	     -6.44758401	    -66.22141459	      7.91804427	      0.40595239	      0.00000000	      3.31457929	     11.31018307	      3.44182856	     -7.67763067	      8.37133571	    -12.27769563	      0.00000000	    -11.09610783	     -8.67045583	     -3.96315157
      6.30000000	     -0.12058690	      6.49992089	     -1.04402827	      1.99255387	      1.03566276	     -0.21871039	     18.89018119	     -9.93091824	     -6.66652537	    -65.78656334	      8.70591032	      0.48878300	      0.00000000	      2.62048334	     11.12309776	      3.89583190	     -7.14370646	      8.26320114	    -12.59674552	      0.00000000	    -11.11815067	     -8.34745581	     -4.18331970
      6.30500000	     -0.08712023	      6.28871084	     -0.88337581	      1.99846301	      1.03617334	     -0.21922444	     19.33895075	     -9.65405855	     -6.87878637	    -65.29904774	      9.48977628	      0.61410092	      0.00000000	      1.91537147	     10.93244248	      4.37724381	     -6.59523095	      8.15369467	    -12.94709897	      0.00000000	    -11.14637327	     -8.03227077	     -4.38208601
      6.31000000	     -0.05825362	      6.07730520	     -0.72629946	      2.00435291	      1.03662306	     -0.21971710	     19.77993768	     -9.37421506	     -7.08471020	    -64.75528094	     10.26875059	      0.79127801	      0.00000000	      1.21714962	     10.73387040	      4.83486163	     -6.04239086	      8.04452841	    -13.29176103	      0.00000000	    -11.17116401	     -7.71818197	     -4.57864559
      6.31500000	     -0.03243200	      5.86726771	     -0.57246748	      2.01021150	      1.03701525	     -0.22017509	     20.21023338	     -9.09105378	     -7.28259034	    -64.15300399	     11.04326480	      1.01386828	      0.00000000	      0.52717475	     10.52834578	      5.27196629	     -5.48944095	      7.93243669	    -13.63242306	      0.00000000	    -11.19799893	     -7.40807162	     -4.77654774
      6.32000000	     -0.00717427	      5.66278631	     -0.42729157	      2.01605424	      1.03734820	     -0.22060217	     20.62769652	     -8.80894524	     -7.46754731	    -63.49292831	     11.80705294	      1.27367763	      0.00000000	     -0.15906630	     10.32071422	      5.68637006	     -4.93512122	      7.82251631	    -13.96065780	      0.00000000	    -11.22632900	     -7.10811475	     -4.95866124
      6.32500000	      0.01417288	      5.46518817	     -0.28814379	      2.02187620	      1.03761881	     -0.22099986	     21.03495910	     -8.53032116	     -7.64234237	    -62.77527893	     12.55094958	      1.56287730	      0.00000000	     -0.83444609	     10.11291284	      6.07085553	     -4.38585349	      7.72167494	    -14.26399741	      0.00000000	    -11.25331261	     -6.81910598	     -5.13151004
